<?xml version="1.0" encoding="UTF-8"?>
<svg id="Layer_1" data-name="Layer 1" xmlns="http://www.w3.org/2000/svg" viewBox="0 0 16 16">
  <circle cx="8" cy="8" r="8" stroke-width="0"/>
  <path d="M8,3.75c2.34,0,4.25,1.91,4.25,4.25s-1.91,4.25-4.25,4.25-4.25-1.91-4.25-4.25,1.91-4.25,4.25-4.25M8,2.5c-3.04,0-5.5,2.46-5.5,5.5s2.46,5.5,5.5,5.5,5.5-2.46,5.5-5.5-2.46-5.5-5.5-5.5h0Z" fill="#e60000" stroke-width="0"/>
  <path d="M8,5.75c1.24,0,2.25,1.01,2.25,2.25s-1.01,2.25-2.25,2.25-2.25-1.01-2.25-2.25,1.01-2.25,2.25-2.25M8,4.5c-1.93,0-3.5,1.57-3.5,3.5s1.57,3.5,3.5,3.5,3.5-1.57,3.5-3.5-1.57-3.5-3.5-3.5h0Z" fill="#e60000" stroke-width="0"/>
</svg>